HIERARCHY
ROOT Hips
{
	OFFSET 0.000000 0.000000 0.000000 
	CHANNELS 6 Xposition Yposition Zposition Zrotation Yrotation Xrotation
	JOINT LeftUpLeg
	{
		OFFSET 1.363060 -1.794630 0.839290 
		CHANNELS 3 Zrotation Yrotation Xrotation
		JOINT LeftLeg
		{
			OFFSET 2.448110 -6.726130 0.000000 
			CHANNELS 3 Zrotation Yrotation Xrotation
			JOINT LeftFoot
			{
				OFFSET 2.562200 -7.039590 0.000000 
				CHANNELS 3 Zrotation Yrotation Xrotation
				JOINT LeftToeBase
				{
					OFFSET 0.157640 -0.433110 2.322550 
					CHANNELS 3 Zrotation Yrotation Xrotation
					End Site
					{
						OFFSET 0.000000 0.000000 0.000000 
					}
				}
			}
		}
	}
	JOINT RightUpLeg
	{
		OFFSET -1.305520 -1.794630 0.839290 
		CHANNELS 3 Zrotation Yrotation Xrotation
		JOINT RightLeg
		{
			OFFSET -2.542530 -6.985550 0.000000 
			CHANNELS 3 Zrotation Yrotation Xrotation
			JOINT RightFoot
			{
				OFFSET -2.568260 -7.056230 0.000000 
				CHANNELS 3 Zrotation Yrotation Xrotation
				JOINT RightToeBase
				{
					OFFSET -0.164730 -0.452590 2.363150 
					CHANNELS 3 Zrotation Yrotation Xrotation
					End Site
					{
						OFFSET 0.000000 0.000000 0.000000 
					}
				}
			}
		}
	}
	JOINT Spine
	{
		OFFSET 0.028270 2.035590 -0.193380 
		CHANNELS 3 Zrotation Yrotation Xrotation
		JOINT Spine1
		{
			OFFSET 0.056720 2.048850 -0.042750 
			CHANNELS 3 Zrotation Yrotation Xrotation
			JOINT Neck1
			{
				OFFSET -0.054170 1.746240 0.172020 
				CHANNELS 3 Zrotation Yrotation Xrotation
				JOINT Head
				{
					OFFSET 0.104070 1.761360 -0.123970 
					CHANNELS 3 Zrotation Yrotation Xrotation
					End Site
					{
						OFFSET 0.000000 0.000000 0.000000 
					}
				}
			}
			JOINT LeftArm
			{
				OFFSET 3.362410 1.200890 -0.311210 
				CHANNELS 3 Zrotation Yrotation Xrotation
				JOINT LeftForeArm
				{
					OFFSET 4.983000 -0.000000 -0.000000 
					CHANNELS 3 Zrotation Yrotation Xrotation
					JOINT LeftHand
					{
						OFFSET 3.483560 -0.000000 -0.000000 
						CHANNELS 3 Zrotation Yrotation Xrotation
						JOINT LeftHandIndex1
						{
							OFFSET 0.715260 -0.000000 -0.000000 
							CHANNELS 3 Zrotation Yrotation Xrotation
							End Site
							{
								OFFSET 0.000000 0.000000 0.000000 
							}
						}
					}
				}
			}
			JOINT RightArm
			{
				OFFSET -3.136600 1.374050 -0.404650 
				CHANNELS 3 Zrotation Yrotation Xrotation
				JOINT RightForeArm
				{
					OFFSET -5.241900 -0.000000 -0.000000 
					CHANNELS 3 Zrotation Yrotation Xrotation
					JOINT RightHand
					{
						OFFSET -3.444170 -0.000000 -0.000000 
						CHANNELS 3 Zrotation Yrotation Xrotation
						JOINT RightHandIndex1
						{
							OFFSET -0.622530 -0.000000 -0.000000 
							CHANNELS 3 Zrotation Yrotation Xrotation
							End Site
							{
								OFFSET 0.000000 0.000000 0.000000 
							}
						}
					}
				}
			}
		}
	}
}
MOTION
Frames: 12
Frame Time: 0.041667
12.903890 17.432455 -3.600669 9.999851 28.326571 -0.565640 4.828830 -18.855026 -11.589190 -2.012555 6.801030 20.277006 5.903429 -8.656288 35.523904 0.430900 -4.212700 -11.675900 6.058014 6.096862 -8.117781 -5.835902 -15.461318 49.353566 1.420001 -10.017913 -19.712349 -0.001000 0.204600 -0.562000 2.319242 -9.319163 -3.418394 0.768013 -4.071879 -5.494392 -1.060653 30.486357 0.544116 -13.611500 11.948300 -1.867100 -67.318777 12.749671 5.715369 130.082678 -54.785101 -98.985381 1.511229 -1.943526 4.161367 -7.125000 0.000000 0.000000 63.960785 -13.139262 2.094421 -119.617062 56.485309 -94.032626 -1.330201 3.219678 -11.041470 7.125000 0.000000 0.000000 
12.930162 17.411480 -3.600140 9.456652 28.469811 -0.950875 5.105986 -18.946925 -11.535043 -1.934377 6.911888 20.564434 5.899114 -8.740188 35.064109 0.405500 -4.088100 -11.324700 6.461725 5.749390 -7.999552 -5.872670 -15.466228 49.477797 1.225090 -9.600033 -19.849281 -0.000400 0.124000 -0.340600 2.362101 -9.726027 -3.442175 0.817331 -4.280630 -5.550835 -0.814952 30.057428 0.726995 -13.500300 11.823400 -1.819500 -66.790343 12.308540 6.394153 129.725576 -54.899195 -98.818088 1.538931 -2.021979 4.525655 -7.125000 0.000000 0.000000 64.218264 -13.023576 1.335452 -119.453366 56.522212 -93.966002 -1.315418 3.233520 -11.180671 7.125000 0.000000 0.000000 
12.953362 17.391776 -3.598021 9.122461 28.660321 -1.334531 5.233230 -19.146878 -11.375786 -1.885165 7.002764 20.805902 5.903913 -8.918992 34.647221 0.395400 -4.037700 -11.182600 6.707105 5.362585 -7.755802 -5.920531 -15.472463 49.622228 1.059146 -9.263265 -20.029465 0.000000 0.041100 -0.113000 2.407976 -10.083731 -3.437903 1.072869 -4.462053 -5.442459 -0.633573 29.712317 0.836534 -13.428500 11.703100 -1.753900 -66.463541 11.715148 7.087404 129.403948 -54.997857 -98.655117 1.554814 -2.071242 5.038347 -7.125000 0.000000 0.000000 64.409428 -12.853723 0.647499 -119.592941 56.484309 -94.054076 -1.317948 3.235432 -11.143077 7.125000 0.000000 0.000000 
12.974655 17.379169 -3.594101 9.150671 28.716244 -1.338217 5.123498 -19.226799 -11.374346 -1.853588 7.078579 21.033156 5.917774 -9.323128 33.823420 0.562900 -4.805500 -13.354600 6.583143 5.191501 -7.840385 -5.968754 -15.490375 49.736093 1.055580 -9.231831 -19.953119 0.000000 -0.020900 0.057300 2.446700 -10.396619 -3.447610 1.437211 -4.617428 -5.277903 -0.449997 29.340964 1.015315 -13.400100 11.598800 -1.650500 -66.361059 11.230863 7.901659 129.132634 -55.091355 -98.478942 1.550868 -2.070804 5.428504 -7.125000 0.000000 0.000000 64.523182 -12.725770 0.201056 -119.806977 56.442652 -94.140788 -1.332024 3.227142 -11.010817 7.125000 0.000000 0.000000 
12.995525 17.359677 -3.592406 9.348270 28.673248 -1.186654 4.940730 -19.337662 -11.375463 -1.825954 7.140327 21.212252 5.881131 -9.440415 33.227607 0.611700 -5.005600 -13.924700 6.279406 5.209939 -8.050460 -6.033047 -15.524780 49.861862 0.953453 -8.944118 -19.814604 -0.003500 -0.383400 1.053500 2.486104 -10.763321 -3.482984 1.921337 -4.772540 -5.272257 -0.322401 29.100332 1.090514 -13.368500 11.531600 -1.749800 -66.533821 11.108200 8.525528 128.960034 -55.156757 -98.353871 1.554487 -2.072338 5.932078 -7.125000 0.000000 0.000000 64.556129 -12.591628 0.107497 -119.898917 56.423691 -94.152516 -1.340262 3.223486 -10.771848 7.125000 0.000000 0.000000 
13.016924 17.332345 -3.593783 9.142855 28.546195 -1.371732 5.067627 -19.454698 -11.274555 -1.781224 7.195352 21.366498 5.878200 -9.510938 32.843898 0.651700 -5.163900 -14.376600 6.420234 5.265639 -8.047833 -6.084783 -15.564189 50.052355 0.899887 -8.876455 -19.992736 -0.001000 -0.206300 0.566700 2.537191 -11.121979 -3.511195 2.337119 -4.915734 -5.378762 -0.216064 29.134046 1.022871 -13.266000 11.537300 -1.940800 -66.900792 11.078832 8.758781 128.837565 -55.200436 -98.261803 1.560613 -2.075682 6.398116 -7.125000 0.000000 0.000000 64.567223 -12.356028 0.329764 -119.965131 56.384261 -94.150637 -1.348542 3.218611 -10.693760 7.125000 0.000000 0.000000 
13.037264 17.317726 -3.598974 8.553244 28.317082 -1.670301 5.509125 -19.388932 -11.317785 -1.720813 7.248489 21.520086 5.960973 -9.802533 32.584960 0.637800 -5.109700 -14.221600 6.978434 5.419579 -8.044646 -6.105097 -15.595629 50.236839 0.971409 -9.149074 -20.280012 -0.002100 0.296600 -0.815100 2.592653 -11.325719 -3.521650 2.558028 -5.005614 -5.414674 -0.164187 29.097454 1.013381 -13.256700 11.521900 -1.983100 -67.262204 10.830011 9.051764 128.589684 -55.285607 -98.093679 1.564758 -2.089179 6.732950 -7.125000 0.000000 0.000000 64.692087 -12.015264 0.453031 -119.966861 56.356492 -94.115999 -1.352134 3.216335 -10.867777 7.125000 0.000000 0.000000 
13.058239 17.307027 -3.603212 8.239779 28.120488 -1.700833 5.764064 -19.426808 -11.390921 -1.667263 7.303084 21.675261 6.014351 -10.087839 32.065381 0.675300 -5.254700 -14.636300 7.247505 5.591792 -8.121252 -6.138723 -15.625328 50.379888 0.900681 -9.031233 -20.424130 -0.000300 0.112900 -0.310100 2.621317 -11.468378 -3.533963 2.692968 -5.072409 -5.393890 -0.166155 28.924949 1.016595 -13.325300 11.443700 -2.013500 -67.588080 10.681542 9.562522 128.533498 -55.285507 -98.034691 1.569760 -2.092011 6.989659 -7.125000 0.000000 0.000000 65.050964 -11.711797 0.458343 -119.921500 56.336411 -94.067081 -1.341556 3.221752 -10.957612 7.125000 0.000000 0.000000 
13.077943 17.288806 -3.602046 8.101944 27.921315 -1.723561 5.859397 -19.538453 -11.331314 -1.623934 7.352958 21.813606 6.025955 -10.236220 31.499591 0.779800 -5.637700 -15.736900 7.371317 5.836796 -8.041813 -6.158898 -15.649498 50.493490 0.889512 -9.091059 -20.674855 -0.000000 -0.029000 0.079700 2.622071 -11.571490 -3.557786 2.789596 -5.113855 -5.506094 -0.090794 28.699674 1.053859 -13.335100 11.359700 -2.055700 -67.923942 10.770301 10.077715 128.477488 -55.291225 -97.967947 1.579177 -2.090599 7.304212 -7.125000 0.000000 0.000000 65.576969 -11.634763 0.599108 -119.907091 56.299520 -94.007620 -1.332273 3.218275 -10.811858 7.125000 0.000000 0.000000 
13.096694 17.281072 -3.598868 7.826359 27.698745 -2.003485 5.982322 -19.569274 -11.142389 -1.589959 7.395969 21.939439 6.051978 -10.377493 31.238441 0.841800 -5.852500 -16.357000 7.689531 6.215224 -7.767703 -6.136654 -15.659146 50.558088 1.112308 -9.727889 -20.950668 -0.003900 0.402100 -1.104900 2.622713 -11.603119 -3.560944 2.876308 -5.134016 -5.577907 0.050019 28.343512 1.194045 -13.291700 11.255600 -1.980600 -68.334107 10.770372 10.566793 128.206012 -55.391926 -97.757924 1.591193 -2.091921 7.784970 -7.125000 0.000000 0.000000 66.120832 -11.522029 0.835904 -120.012520 56.221990 -94.014166 -1.337531 3.205660 -10.433278 7.125000 0.000000 0.000000 
13.122542 17.279589 -3.596961 7.559689 27.566789 -2.250511 6.071194 -19.656472 -10.960359 -1.556819 7.441414 22.067985 6.066205 -10.488454 30.950310 0.883800 -5.992900 -16.763700 7.937871 6.480988 -7.570386 -6.121073 -15.666165 50.595280 1.232230 -10.081964 -21.122101 -0.007900 0.573300 -1.575400 2.620822 -11.660760 -3.551021 2.855814 -5.182611 -5.506104 0.202110 27.915851 1.359481 -13.252400 11.117500 -1.876500 -68.762652 10.758367 11.019783 128.082825 -55.438209 -97.631782 1.599652 -2.082077 8.241119 -7.125000 0.000000 0.000000 66.753468 -11.342774 1.170746 -120.394257 56.049597 -94.217512 -1.346294 3.189670 -10.388789 7.125000 0.000000 0.000000 
13.153264 17.266029 -3.596220 7.561816 27.484714 -2.184973 6.000215 -19.865420 -10.892121 -1.516159 7.506223 22.242348 6.041966 -10.562395 30.318214 0.949900 -6.206900 -17.385900 7.822206 6.561419 -7.605666 -6.140900 -15.683923 50.648677 1.163248 -9.955365 -21.240375 -0.001600 0.257600 -0.707700 2.608735 -11.761215 -3.558772 2.833666 -5.238448 -5.440420 0.314589 27.564369 1.437431 -13.245100 10.979500 -1.898000 -69.276793 10.899591 11.375405 128.187219 -55.398701 -97.647124 1.595588 -2.061300 8.566377 -7.125000 0.000000 0.000000 67.374763 -11.241265 1.686320 -120.810030 55.868608 -94.436246 -1.348671 3.174587 -10.745081 7.125000 0.000000 0.000000 
